<svg xmlns="http://www.w3.org/2000/svg" viewBox="0 0 303.4 265.74"><defs><style>.cls-1{fill:#fff;}</style></defs><title>Risorsa 3</title><g id="Livello_2" data-name="Livello 2"><g id="Livello_2-2" data-name="Livello 2"><path class="cls-1" d="M303.4,132.25a25,25,0,0,1-2.48,10.56,36,36,0,0,1-6,9c-4.81,5.43-10.71,9.74-16.79,13.63a178.18,178.18,0,0,1-39.62,17.45c-27.67,8.64-56.8,11.81-85.61,11.2-3.6-.12-7.21-.23-10.81-.47s-7.19-.45-10.78-.78c-7.17-.7-14.33-1.49-21.44-2.62s-14.2-2.31-21.22-3.85-14-3.14-20.94-5.07c-13.82-3.85-27.5-8.54-40.25-15.47A90.48,90.48,0,0,1,18.19,160a58.61,58.61,0,0,1-8.45-7.16l-1.91-2.06-1.75-2.24a26.82,26.82,0,0,1-1.61-2.37l-.77-1.22-.66-1.3a27,27,0,0,1-3-11.4,27.42,27.42,0,0,1,2.41-11.69L3,119.18l.71-1.29a26.63,26.63,0,0,1,1.51-2.53L6.91,113l1.84-2.23A72.77,72.77,0,0,1,26.23,96.57a133.93,133.93,0,0,1,19.86-9.63A201.43,201.43,0,0,1,66.86,80c7-1.93,14.1-3.57,21.22-5s14.29-2.45,21.48-3.37a340.59,340.59,0,0,1,43.32-2.53,348.7,348.7,0,0,1,43.27,2.93c1.8.21,3.58.51,5.37.79s3.58.54,5.36.88l5.34,1,5.31,1.12c7.08,1.52,14.08,3.43,21,5.57A180.07,180.07,0,0,1,278.15,99c6.08,3.89,12,8.21,16.79,13.66a36,36,0,0,1,6,9A25,25,0,0,1,303.4,132.25Zm-1,0a23.62,23.62,0,0,0-2.47-10.06l-.57-1.18-.69-1.12a22.79,22.79,0,0,0-1.44-2.19l-1.59-2.09-1.78-1.93a52.33,52.33,0,0,0-8-6.78,77.63,77.63,0,0,0-9-5.43c-1.58-.78-3.16-1.56-4.75-2.31s-3.21-1.44-4.85-2.09q-4.92-1.94-9.95-3.55a200,200,0,0,0-20.43-5.31c-6.89-1.46-13.84-2.58-20.79-3.62l-5.23-.71-5.24-.6c-1.74-.23-3.49-.39-5.24-.57s-3.5-.36-5.25-.51c-7-.68-14-1.11-21-1.43s-14.06-.41-21.09-.39c-28.09.24-56.31,2.59-83.5,9.25a206.42,206.42,0,0,0-20,6,143.78,143.78,0,0,0-19,8.26,85,85,0,0,0-8.68,5.33,53.12,53.12,0,0,0-7.7,6.37C9.39,120.22,6,126,5.75,132.25S8.52,144.77,13,149.83s10.18,9.31,16.17,12.89a125.17,125.17,0,0,0,19.09,9A171.35,171.35,0,0,0,68.55,178c6.88,1.68,13.85,3,20.84,4.11s14.05,1.8,21.11,2.33c14.12,1,28.27,1.2,42.37.88s28.18-1.18,42.18-2.62a398.21,398.21,0,0,0,41.73-6.29,203.87,203.87,0,0,0,20.43-5.36q5-1.62,9.95-3.56c1.64-.65,3.23-1.4,4.85-2.09s3.17-1.53,4.75-2.31a77.25,77.25,0,0,0,9-5.45,52.17,52.17,0,0,0,8-6.8l1.78-1.94,1.59-2.09a22.83,22.83,0,0,0,1.44-2.19l.69-1.12.57-1.18A23.63,23.63,0,0,0,302.35,132.25Z"/><path class="cls-1" d="M71.27,258.73a25,25,0,0,1-7.53-7.8,36,36,0,0,1-4.3-10c-2-7-2.38-14.28-2.35-21.49a178.18,178.18,0,0,1,6.82-42.75c7.74-27.94,20.87-54.13,37-78,2.05-3,4.1-5.93,6.25-8.82s4.28-5.8,6.5-8.63c4.47-5.65,9-11.23,13.82-16.6S137.14,54,142.24,48.92s10.24-10.08,15.61-14.84c10.73-9.53,22.08-18.48,34.83-25.44A90.48,90.48,0,0,1,202.58,4,58.61,58.61,0,0,1,213.17.81l2.77-.49,2.83-.25A26.84,26.84,0,0,1,221.64,0h1.44l1.45.15a27,27,0,0,1,11.23,3.62,27.42,27.42,0,0,1,8.52,8.37l.83,1.24.7,1.3a26.62,26.62,0,0,1,1.31,2.64l1.11,2.7.87,2.75a72.77,72.77,0,0,1,2.43,22.38,133.93,133.93,0,0,1-2.67,21.91,201.45,201.45,0,0,1-5.47,21.19c-2.18,6.94-4.64,13.78-7.33,20.52s-5.69,13.34-8.81,19.88a340.59,340.59,0,0,1-21.36,37.77,348.7,348.7,0,0,1-25.92,34.78c-1.15,1.4-2.37,2.73-3.57,4.09s-2.39,2.71-3.64,4L169,213.26l-3.82,3.86c-5.12,5.12-10.51,10-16.06,14.62a180.07,180.07,0,0,1-36.2,23.8c-6.57,3-13.4,5.61-20.58,6.7a36,36,0,0,1-10.85.16A25,25,0,0,1,71.27,258.73Zm.57-.88a23.62,23.62,0,0,0,9.8,3.38l1.3.16,1.31,0a22.79,22.79,0,0,0,2.62,0l2.62-.21,2.59-.45a52.32,52.32,0,0,0,10.06-3.08A77.63,77.63,0,0,0,111.6,253c1.51-.9,3-1.81,4.51-2.74s3-1.92,4.38-2.95q4.3-3.08,8.38-6.43a200,200,0,0,0,15.54-14.29c5-5,9.67-10.23,14.31-15.51l3.43-4L165.5,203c1.14-1.34,2.22-2.72,3.32-4.09s2.2-2.74,3.27-4.13c4.36-5.51,8.53-11.18,12.61-16.9s8-11.59,11.76-17.51c15-23.73,28.35-48.72,37.49-75.18a206.4,206.4,0,0,0,5.82-20.07,143.78,143.78,0,0,0,3.34-20.41,85,85,0,0,0,.23-10.19,53.12,53.12,0,0,0-1.18-9.92c-1.39-6.41-4.41-12.36-9.52-16s-12-4.46-18.72-3.42-13.34,3.51-19.6,6.6A125.16,125.16,0,0,0,176.41,23a171.36,171.36,0,0,0-16.28,13.61c-5.14,4.87-10,10-14.75,15.28S136.24,62.69,132,68.33c-8.54,11.3-16.34,23.1-23.71,35.13S94,127.78,87.6,140.32A398.21,398.21,0,0,0,70.26,178.8a203.88,203.88,0,0,0-6.57,20.07q-1.36,5.11-2.4,10.29c-.35,1.73-.58,3.47-.87,5.21s-.44,3.49-.63,5.25a77.26,77.26,0,0,0-.32,10.55,52.17,52.17,0,0,0,1.36,10.44l.67,2.55.9,2.47a22.83,22.83,0,0,0,1.06,2.4l.57,1.18.68,1.12A23.63,23.63,0,0,0,71.84,257.85Z"/><path class="cls-1" d="M71.78,5.44A25,25,0,0,1,82,1.83a36,36,0,0,1,10.84.23c7.17,1.13,14,3.77,20.53,6.8a178.18,178.18,0,0,1,36,24C171.6,51.5,190,74.33,205,98.93c1.84,3.1,3.69,6.2,5.42,9.36s3.5,6.3,5.15,9.51c3.28,6.42,6.46,12.88,9.35,19.47s5.7,13.21,8.19,20,4.91,13.5,7,20.37c4.2,13.72,7.62,27.77,8.65,42.25a90.47,90.47,0,0,1,.07,10.92,58.61,58.61,0,0,1-1.48,11l-.71,2.72-.95,2.68a26.84,26.84,0,0,1-1.13,2.63l-.61,1.31-.74,1.25a27,27,0,0,1-8,8.7,27.42,27.42,0,0,1-11.15,4.27l-1.47.24-1.47.09a26.64,26.64,0,0,1-2.94.09l-2.92-.11-2.87-.35a72.77,72.77,0,0,1-21.36-7.09,133.93,133.93,0,0,1-18.81-11.54,201.43,201.43,0,0,1-17-13.79q-8.11-7.3-15.61-15.2c-5-5.25-9.77-10.72-14.41-16.28a340.59,340.59,0,0,1-25.47-35.13,348.7,348.7,0,0,1-20.85-38c-.79-1.63-1.5-3.3-2.23-4.95s-1.47-3.31-2.15-5l-2-5-1.92-5.08C68,101.35,65.88,94.43,64,87.45a180.07,180.07,0,0,1-6.6-42.82c0-7.22.46-14.52,2.46-21.51a36,36,0,0,1,4.37-9.94A25,25,0,0,1,71.78,5.44Zm.56.88a23.62,23.62,0,0,0-7.15,7.51l-.69,1.11-.57,1.18a22.79,22.79,0,0,0-1.07,2.39L62,21l-.67,2.54a52.33,52.33,0,0,0-1.38,10.42,77.62,77.62,0,0,0,.29,10.54c.19,1.75.39,3.5.62,5.24s.52,3.48.86,5.21q1,5.19,2.36,10.29a200,200,0,0,0,6.53,20.08c2.48,6.59,5.28,13,8.15,19.46L81,109.56l2.32,4.74c.74,1.59,1.55,3.15,2.34,4.72s1.58,3.14,2.4,4.69c3.2,6.26,6.62,12.4,10.13,18.5s7.23,12.06,11,18c15.34,23.53,32.52,46,52.78,65.36a206.4,206.4,0,0,0,15.83,13.63A143.77,143.77,0,0,0,195,250.71a85,85,0,0,0,9.17,4.44,53.11,53.11,0,0,0,9.51,3.05c6.41,1.4,13.08,1.13,18.5-2s9.06-9.09,10.89-15.6S245.4,227,245.19,220a125.17,125.17,0,0,0-2.7-20.93,171.36,171.36,0,0,0-5.61-20.46c-2.29-6.7-4.92-13.29-7.77-19.77s-6.05-12.81-9.41-19c-6.72-12.46-14.22-24.46-22.09-36.17s-16.17-23.1-24.93-34.12a398.2,398.2,0,0,0-27.79-31.77,203.87,203.87,0,0,0-15.52-14.33Q125.29,20.07,121,17c-1.43-1-2.92-2-4.38-3s-3-1.85-4.51-2.76a77.26,77.26,0,0,0-9.46-4.68A52.17,52.17,0,0,0,92.6,3.46L90,3l-2.62-.21a22.84,22.84,0,0,0-2.62,0l-1.31,0-1.3.16A23.63,23.63,0,0,0,72.34,6.32Z"/><circle class="cls-1" cx="58.82" cy="50.68" r="10.73"/><circle class="cls-1" cx="271.07" cy="167.23" r="10.73"/><circle class="cls-1" cx="61.42" cy="244.1" r="10.73"/><path class="cls-1" d="M168.16,140l13-12.63a1.61,1.61,0,0,0-.89-2.75L162.32,122l-8-16.23a1.61,1.61,0,0,0-2.89,0l-8,16.23-17.91,2.6a1.61,1.61,0,0,0-.89,2.75l13,12.63-3.06,17.84a1.61,1.61,0,0,0,2.34,1.7l16-8.42,16,8.42a1.61,1.61,0,0,0,2.34-1.7Z"/></g></g></svg>